<?xml version="1.0" encoding="utf-8" standalone="no"?>
<!DOCTYPE svg PUBLIC "-//W3C//DTD SVG 1.1//EN"
  "http://www.w3.org/Graphics/SVG/1.1/DTD/svg11.dtd">
<svg xmlns:xlink="http://www.w3.org/1999/xlink" width="735.12pt" height="219.528pt" viewBox="0 0 735.12 219.528" xmlns="http://www.w3.org/2000/svg" version="1.1">
 <metadata>
  <rdf:RDF xmlns:dc="http://purl.org/dc/elements/1.1/" xmlns:cc="http://creativecommons.org/ns#" xmlns:rdf="http://www.w3.org/1999/02/22-rdf-syntax-ns#">
   <cc:Work>
    <dc:type rdf:resource="http://purl.org/dc/dcmitype/StillImage"/>
    <dc:date>2026-09-22T19:56:24.618088</dc:date>
    <dc:format>image/svg+xml</dc:format>
    <dc:creator>
     <cc:Agent>
      <dc:title>Matplotlib v3.10.8, https://matplotlib.org/</dc:title>
     </cc:Agent>
    </dc:creator>
   </cc:Work>
  </rdf:RDF>
 </metadata>
 <defs>
  <style type="text/css">*{stroke-linejoin: round; stroke-linecap: butt}</style>
 </defs>
 <g id="figure_1">
  <g id="patch_1">
   <path d="M 0 219.528 
L 735.12 219.528 
L 735.12 0 
L 0 0 
z
" style="fill: #ffffff"/>
  </g>
  <g id="axes_1">
   <g id="patch_2">
    <path d="M 43.5132 121.9608 
L 170.4708 121.9608 
Q 173.2428 121.9608 173.2428 119.1888 
L 173.2428 72.6192 
Q 173.2428 69.8472 170.4708 69.8472 
L 43.5132 69.8472 
Q 40.7412 69.8472 40.7412 72.6192 
L 40.7412 119.1888 
Q 40.7412 121.9608 43.5132 121.9608 
z
" clip-path="url(#p49ec9ae8cc)" style="fill: #edf5fb; stroke: #1765ad; stroke-width: 1.5; stroke-linejoin: miter"/>
   </g>
   <g id="patch_3">
    <path d="M 173.52 95.904 
Q 192.924 95.904 210.762752 95.904 
" clip-path="url(#p49ec9ae8cc)" style="fill: none; stroke: #243746; stroke-width: 1.4; stroke-linecap: round"/>
    <path d="M 205.562752 93.304 
L 210.762752 95.904 
L 205.562752 98.504 
z
" clip-path="url(#p49ec9ae8cc)" style="fill: #243746; stroke: #243746; stroke-width: 1.4; stroke-linecap: round"/>
   </g>
   <g id="patch_4">
    <path d="M 215.3772 121.9608 
L 342.3348 121.9608 
Q 345.1068 121.9608 345.1068 119.1888 
L 345.1068 72.6192 
Q 345.1068 69.8472 342.3348 69.8472 
L 215.3772 69.8472 
Q 212.6052 69.8472 212.6052 72.6192 
L 212.6052 119.1888 
Q 212.6052 121.9608 215.3772 121.9608 
z
" clip-path="url(#p49ec9ae8cc)" style="fill: #edf5fb; stroke: #1765ad; stroke-width: 1.5; stroke-linejoin: miter"/>
   </g>
   <g id="patch_5">
    <path d="M 345.384 95.904 
Q 364.788 95.904 382.626752 95.904 
" clip-path="url(#p49ec9ae8cc)" style="fill: none; stroke: #243746; stroke-width: 1.4; stroke-linecap: round"/>
    <path d="M 377.426752 93.304 
L 382.626752 95.904 
L 377.426752 98.504 
z
" clip-path="url(#p49ec9ae8cc)" style="fill: #243746; stroke: #243746; stroke-width: 1.4; stroke-linecap: round"/>
   </g>
   <g id="patch_6">
    <path d="M 387.2412 121.9608 
L 514.1988 121.9608 
Q 516.9708 121.9608 516.9708 119.1888 
L 516.9708 72.6192 
Q 516.9708 69.8472 514.1988 69.8472 
L 387.2412 69.8472 
Q 384.4692 69.8472 384.4692 72.6192 
L 384.4692 119.1888 
Q 384.4692 121.9608 387.2412 121.9608 
z
" clip-path="url(#p49ec9ae8cc)" style="fill: #edf5fb; stroke: #1765ad; stroke-width: 1.5; stroke-linejoin: miter"/>
   </g>
   <g id="patch_7">
    <path d="M 517.248 95.904 
Q 536.652 95.904 554.490752 95.904 
" clip-path="url(#p49ec9ae8cc)" style="fill: none; stroke: #243746; stroke-width: 1.4; stroke-linecap: round"/>
    <path d="M 549.290752 93.304 
L 554.490752 95.904 
L 549.290752 98.504 
z
" clip-path="url(#p49ec9ae8cc)" style="fill: #243746; stroke: #243746; stroke-width: 1.4; stroke-linecap: round"/>
   </g>
   <g id="patch_8">
    <path d="M 559.1052 121.9608 
L 686.0628 121.9608 
Q 688.8348 121.9608 688.8348 119.1888 
L 688.8348 72.6192 
Q 688.8348 69.8472 686.0628 69.8472 
L 559.1052 69.8472 
Q 556.3332 69.8472 556.3332 72.6192 
L 556.3332 119.1888 
Q 556.3332 121.9608 559.1052 121.9608 
z
" clip-path="url(#p49ec9ae8cc)" style="fill: #edf5fb; stroke: #1765ad; stroke-width: 1.5; stroke-linejoin: miter"/>
   </g>
   <g id="text_1">
    <text style="font-weight: 700; font-size: 15px; font-family: 'DejaVu Sans'; text-anchor: middle; fill: #243746" x="367.56" y="32.457656" transform="rotate(-0 367.56 32.457656)">Dari tegangan analog menuju kata biner</text>
   </g>
   <g id="text_2">
    <text style="font-size: 11px; font-family: 'DejaVu Sans'; fill: #243746" transform="translate(70.393797 92.780516)">Pengondisian</text>
    <text style="font-size: 11px; font-family: 'DejaVu Sans'; fill: #243746" transform="translate(68.927703 105.098109)">+ antialiasing</text>
   </g>
   <g id="text_3">
    <text style="font-size: 11px; font-family: 'DejaVu Sans'; fill: #243746" transform="translate(67.467625 148.220516)">Waktu kontinu</text>
    <text style="font-size: 11px; font-family: 'DejaVu Sans'; fill: #243746" transform="translate(56.586219 160.538109)">Amplitudo kontinu</text>
   </g>
   <g id="text_4">
    <text style="font-size: 11px; font-family: 'DejaVu Sans'; fill: #243746" transform="translate(253.111703 92.780516)">Sampling</text>
    <text style="font-size: 11px; font-family: 'DejaVu Sans'; fill: #243746" transform="translate(241.569438 105.098109)">+ penahanan</text>
   </g>
   <g id="text_5">
    <text style="font-size: 11px; font-family: 'DejaVu Sans'; fill: #243746" transform="translate(240.764203 148.220516)">Nilai pada nTs</text>
    <text style="font-size: 11px; font-family: 'DejaVu Sans'; fill: #243746" transform="translate(230.583188 160.538109)">Belum dibulatkan</text>
   </g>
   <g id="text_6">
    <text style="font-size: 11px; font-family: 'DejaVu Sans'; text-anchor: middle; fill: #243746" x="450.72" y="98.939312" transform="rotate(-0 450.72 98.939312)">Kuantisasi</text>
   </g>
   <g id="text_7">
    <text style="font-size: 11px; font-family: 'DejaVu Sans'; fill: #243746" transform="translate(406.644375 148.220516)">L = 2^B tingkat</text>
    <text style="font-size: 11px; font-family: 'DejaVu Sans'; fill: #243746" transform="translate(392.912422 160.538109)">Amplitudo berhingga</text>
   </g>
   <g id="text_8">
    <text style="font-size: 11px; font-family: 'DejaVu Sans'; text-anchor: middle; fill: #243746" x="622.584" y="98.939312" transform="rotate(-0 622.584 98.939312)">Pengkodean</text>
   </g>
   <g id="text_9">
    <text style="font-size: 11px; font-family: 'DejaVu Sans'; fill: #243746" transform="translate(577.257125 148.220516)">B bit per sampel</text>
    <text style="font-size: 11px; font-family: 'DejaVu Sans'; fill: #243746" transform="translate(588.7865 160.538109)">Contoh: 101</text>
   </g>
   <g id="text_10">
    <text style="font-size: 12px; font-family: 'DejaVu Sans'; text-anchor: middle; fill: #243746" x="367.56" y="201.77925" transform="rotate(-0 367.56 201.77925)">Sampling mendiskretkan waktu; kuantisasi mendiskretkan amplitudo.</text>
   </g>
  </g>
 </g>
 <defs>
  <clipPath id="p49ec9ae8cc">
   <rect x="7.2" y="7.2" width="720.72" height="205.128"/>
  </clipPath>
 </defs>
</svg>
