<?xml version="1.0" encoding="utf-8" standalone="no"?>
<!DOCTYPE svg PUBLIC "-//W3C//DTD SVG 1.1//EN"
  "http://www.w3.org/Graphics/SVG/1.1/DTD/svg11.dtd">
<svg xmlns:xlink="http://www.w3.org/1999/xlink" width="568.8pt" height="358.128pt" viewBox="0 0 568.8 358.128" xmlns="http://www.w3.org/2000/svg" version="1.1">
 <metadata>
  <rdf:RDF xmlns:dc="http://purl.org/dc/elements/1.1/" xmlns:cc="http://creativecommons.org/ns#" xmlns:rdf="http://www.w3.org/1999/02/22-rdf-syntax-ns#">
   <cc:Work>
    <dc:type rdf:resource="http://purl.org/dc/dcmitype/StillImage"/>
    <dc:date>2026-09-22T19:56:24.489114</dc:date>
    <dc:format>image/svg+xml</dc:format>
    <dc:creator>
     <cc:Agent>
      <dc:title>Matplotlib v3.10.8, https://matplotlib.org/</dc:title>
     </cc:Agent>
    </dc:creator>
   </cc:Work>
  </rdf:RDF>
 </metadata>
 <defs>
  <style type="text/css">*{stroke-linejoin: round; stroke-linecap: butt}</style>
 </defs>
 <g id="figure_1">
  <g id="patch_1">
   <path d="M 0 358.128 
L 568.8 358.128 
L 568.8 0 
L 0 0 
z
" style="fill: #ffffff"/>
  </g>
  <g id="axes_1">
   <g id="patch_2">
    <path d="M 40.464 184.608 
Q 79.272 184.608 116.514752 184.608 
" clip-path="url(#p87d0e36240)" style="fill: none; stroke: #243746; stroke-width: 1.4; stroke-linecap: round"/>
    <path d="M 111.314752 182.008 
L 116.514752 184.608 
L 111.314752 187.208 
z
" clip-path="url(#p87d0e36240)" style="fill: #243746; stroke: #243746; stroke-width: 1.4; stroke-linecap: round"/>
   </g>
   <g id="patch_3">
    <path d="M 118.08 184.608 
Q 151.344 184.608 183.042752 184.608 
" clip-path="url(#p87d0e36240)" style="fill: none; stroke: #243746; stroke-width: 1.4; stroke-linecap: round"/>
    <path d="M 177.842752 182.008 
L 183.042752 184.608 
L 177.842752 187.208 
z
" clip-path="url(#p87d0e36240)" style="fill: #243746; stroke: #243746; stroke-width: 1.4; stroke-linecap: round"/>
   </g>
   <g id="patch_4">
    <path d="M 187.6572 203.7348 
L 248.0868 203.7348 
Q 250.8588 203.7348 250.8588 200.9628 
L 250.8588 168.2532 
Q 250.8588 165.4812 248.0868 165.4812 
L 187.6572 165.4812 
Q 184.8852 165.4812 184.8852 168.2532 
L 184.8852 200.9628 
Q 184.8852 203.7348 187.6572 203.7348 
z
" clip-path="url(#p87d0e36240)" style="fill: #edf5fb; stroke: #1765ad; stroke-width: 1.5; stroke-linejoin: miter"/>
   </g>
   <g id="patch_5">
    <path d="M 400.824 197.9136 
C 404.352686 197.9136 407.737322 196.511638 410.23248 194.01648 
C 412.727638 191.521322 414.1296 188.136686 414.1296 184.608 
C 414.1296 181.079314 412.727638 177.694678 410.23248 175.19952 
C 407.737322 172.704362 404.352686 171.3024 400.824 171.3024 
C 397.295314 171.3024 393.910678 172.704362 391.41552 175.19952 
C 388.920362 177.694678 387.5184 181.079314 387.5184 184.608 
C 387.5184 188.136686 388.920362 191.521322 391.41552 194.01648 
C 393.910678 196.511638 397.295314 197.9136 400.824 197.9136 
z
" clip-path="url(#p87d0e36240)" style="fill: #edf5fb; stroke: #1765ad; stroke-width: 1.5; stroke-linejoin: miter"/>
   </g>
   <g id="patch_6">
    <path d="M 251.136 184.608 
Q 319.3272 184.608 385.953152 184.608 
" clip-path="url(#p87d0e36240)" style="fill: none; stroke: #243746; stroke-width: 1.4; stroke-linecap: round"/>
    <path d="M 380.753152 182.008 
L 385.953152 184.608 
L 380.753152 187.208 
z
" clip-path="url(#p87d0e36240)" style="fill: #243746; stroke: #243746; stroke-width: 1.4; stroke-linecap: round"/>
   </g>
   <g id="patch_7">
    <path d="M 118.08 273.312 
Q 134.712 273.312 149.778752 273.312 
" clip-path="url(#p87d0e36240)" style="fill: none; stroke: #243746; stroke-width: 1.4; stroke-linecap: round"/>
    <path d="M 144.578752 270.712 
L 149.778752 273.312 
L 144.578752 275.912 
z
" clip-path="url(#p87d0e36240)" style="fill: #243746; stroke: #243746; stroke-width: 1.4; stroke-linecap: round"/>
   </g>
   <g id="patch_8">
    <path d="M 154.3932 292.4388 
L 214.8228 292.4388 
Q 217.5948 292.4388 217.5948 289.6668 
L 217.5948 256.9572 
Q 217.5948 254.1852 214.8228 254.1852 
L 154.3932 254.1852 
Q 151.6212 254.1852 151.6212 256.9572 
L 151.6212 289.6668 
Q 151.6212 292.4388 154.3932 292.4388 
z
" clip-path="url(#p87d0e36240)" style="fill: #edf5fb; stroke: #1765ad; stroke-width: 1.5; stroke-linejoin: miter"/>
   </g>
   <g id="patch_9">
    <path d="M 217.872 273.312 
Q 234.504 273.312 249.570752 273.312 
" clip-path="url(#p87d0e36240)" style="fill: none; stroke: #243746; stroke-width: 1.4; stroke-linecap: round"/>
    <path d="M 244.370752 270.712 
L 249.570752 273.312 
L 244.370752 275.912 
z
" clip-path="url(#p87d0e36240)" style="fill: #243746; stroke: #243746; stroke-width: 1.4; stroke-linecap: round"/>
   </g>
   <g id="patch_10">
    <path d="M 254.1852 292.4388 
L 314.6148 292.4388 
Q 317.3868 292.4388 317.3868 289.6668 
L 317.3868 256.9572 
Q 317.3868 254.1852 314.6148 254.1852 
L 254.1852 254.1852 
Q 251.4132 254.1852 251.4132 256.9572 
L 251.4132 289.6668 
Q 251.4132 292.4388 254.1852 292.4388 
z
" clip-path="url(#p87d0e36240)" style="fill: #edf5fb; stroke: #1765ad; stroke-width: 1.5; stroke-linejoin: miter"/>
   </g>
   <g id="patch_11">
    <path d="M 400.824 273.312 
Q 400.824 235.6128 400.824 199.478848 
" clip-path="url(#p87d0e36240)" style="fill: none; stroke: #243746; stroke-width: 1.4; stroke-linecap: round"/>
    <path d="M 398.224 204.678848 
L 400.824 199.478848 
L 403.424 204.678848 
z
" clip-path="url(#p87d0e36240)" style="fill: #243746; stroke: #243746; stroke-width: 1.4; stroke-linecap: round"/>
   </g>
   <g id="patch_12">
    <path d="M 414.1296 184.608 
Q 471.2328 184.608 526.770752 184.608 
" clip-path="url(#p87d0e36240)" style="fill: none; stroke: #243746; stroke-width: 1.4; stroke-linecap: round"/>
    <path d="M 521.570752 182.008 
L 526.770752 184.608 
L 521.570752 187.208 
z
" clip-path="url(#p87d0e36240)" style="fill: #243746; stroke: #243746; stroke-width: 1.4; stroke-linecap: round"/>
   </g>
   <g id="patch_13">
    <path d="M 467.352 84.816 
Q 431.316 84.816 396.845248 84.816 
" clip-path="url(#p87d0e36240)" style="fill: none; stroke: #243746; stroke-width: 1.4; stroke-linecap: round"/>
    <path d="M 402.045248 87.416 
L 396.845248 84.816 
L 402.045248 82.216 
z
" clip-path="url(#p87d0e36240)" style="fill: #243746; stroke: #243746; stroke-width: 1.4; stroke-linecap: round"/>
   </g>
   <g id="patch_14">
    <path d="M 331.8012 103.9428 
L 392.2308 103.9428 
Q 395.0028 103.9428 395.0028 101.1708 
L 395.0028 68.4612 
Q 395.0028 65.6892 392.2308 65.6892 
L 331.8012 65.6892 
Q 329.0292 65.6892 329.0292 68.4612 
L 329.0292 101.1708 
Q 329.0292 103.9428 331.8012 103.9428 
z
" clip-path="url(#p87d0e36240)" style="fill: #edf5fb; stroke: #1765ad; stroke-width: 1.5; stroke-linejoin: miter"/>
   </g>
   <g id="patch_15">
    <path d="M 328.752 84.816 
Q 309.348 84.816 291.509248 84.816 
" clip-path="url(#p87d0e36240)" style="fill: none; stroke: #243746; stroke-width: 1.4; stroke-linecap: round"/>
    <path d="M 296.709248 87.416 
L 291.509248 84.816 
L 296.709248 82.216 
z
" clip-path="url(#p87d0e36240)" style="fill: #243746; stroke: #243746; stroke-width: 1.4; stroke-linecap: round"/>
   </g>
   <g id="patch_16">
    <path d="M 226.4652 103.9428 
L 286.8948 103.9428 
Q 289.6668 103.9428 289.6668 101.1708 
L 289.6668 68.4612 
Q 289.6668 65.6892 286.8948 65.6892 
L 226.4652 65.6892 
Q 223.6932 65.6892 223.6932 68.4612 
L 223.6932 101.1708 
Q 223.6932 103.9428 226.4652 103.9428 
z
" clip-path="url(#p87d0e36240)" style="fill: #edf5fb; stroke: #1765ad; stroke-width: 1.5; stroke-linejoin: miter"/>
   </g>
   <g id="patch_17">
    <path d="M 400.824 129.168 
Q 400.824 150.2352 400.824 169.737152 
" clip-path="url(#p87d0e36240)" style="fill: none; stroke: #243746; stroke-width: 1.4; stroke-linecap: round"/>
    <path d="M 403.424 164.537152 
L 400.824 169.737152 
L 398.224 164.537152 
z
" clip-path="url(#p87d0e36240)" style="fill: #243746; stroke: #243746; stroke-width: 1.4; stroke-linecap: round"/>
   </g>
   <g id="line2d_1">
    <defs>
     <path id="mf8e6e33017" d="M 0 2 
C 0.530406 2 1.03916 1.789267 1.414214 1.414214 
C 1.789267 1.03916 2 0.530406 2 0 
C 2 -0.530406 1.789267 -1.03916 1.414214 -1.414214 
C 1.03916 -1.789267 0.530406 -2 0 -2 
C -0.530406 -2 -1.03916 -1.789267 -1.414214 -1.414214 
C -1.789267 -1.03916 -2 -0.530406 -2 0 
C -2 0.530406 -1.789267 1.03916 -1.414214 1.414214 
C -1.03916 1.789267 -0.530406 2 0 2 
z
" style="stroke: #243746"/>
    </defs>
    <g clip-path="url(#p87d0e36240)">
     <use xlink:href="#mf8e6e33017" x="118.08" y="184.608" style="fill: #243746; stroke: #243746"/>
    </g>
   </g>
   <g id="line2d_2">
    <path d="M 118.08 184.608 
L 118.08 273.312 
" clip-path="url(#p87d0e36240)" style="fill: none; stroke: #243746; stroke-width: 1.4; stroke-linecap: square"/>
   </g>
   <g id="line2d_3">
    <path d="M 317.664 273.312 
L 400.824 273.312 
" clip-path="url(#p87d0e36240)" style="fill: none; stroke: #243746; stroke-width: 1.4; stroke-linecap: square"/>
   </g>
   <g id="line2d_4">
    <g clip-path="url(#p87d0e36240)">
     <use xlink:href="#mf8e6e33017" x="467.352" y="184.608" style="fill: #243746; stroke: #243746"/>
    </g>
   </g>
   <g id="line2d_5">
    <path d="M 467.352 184.608 
L 467.352 84.816 
" clip-path="url(#p87d0e36240)" style="fill: none; stroke: #243746; stroke-width: 1.4; stroke-linecap: square"/>
   </g>
   <g id="line2d_6">
    <path d="M 223.416 84.816 
L 184.608 84.816 
L 184.608 129.168 
L 400.824 129.168 
" clip-path="url(#p87d0e36240)" style="fill: none; stroke: #243746; stroke-width: 1.4; stroke-linecap: square"/>
   </g>
   <g id="text_1">
    <text style="font-weight: 700; font-size: 15px; font-family: 'DejaVu Sans'; text-anchor: middle; fill: #243746" x="284.4" y="32.457656" transform="rotate(-0 284.4 32.457656)">Realisasi rekursif dengan umpan balik tertunda</text>
   </g>
   <g id="text_2">
    <!-- $x[n]$ -->
    <g style="fill: #243746" transform="translate(32.181 165.467313)">
     <text>
      <tspan x="0" y="-0.640625" style="font-style: oblique; font-size: 11px; font-family: 'DejaVu Sans'; fill: #243746">x</tspan>
      <tspan x="10.80127" y="-0.640625" style="font-style: oblique; font-size: 11px; font-family: 'DejaVu Sans'; fill: #243746">n</tspan>
      <tspan x="6.509766" y="-0.640625" style="font-size: 11px; font-family: 'DejaVu Sans'; fill: #243746">[</tspan>
      <tspan x="17.772949" y="-0.640625" style="font-size: 11px; font-family: 'DejaVu Sans'; fill: #243746">]</tspan>
     </text>
    </g>
   </g>
   <g id="text_3">
    <text style="font-size: 11px; font-family: 'DejaVu Sans'; text-anchor: middle; fill: #243746" x="217.872" y="187.643313" transform="rotate(-0 217.872 187.643313)">0.5</text>
   </g>
   <g id="text_4">
    <text style="font-size: 17px; font-family: 'DejaVu Sans'; text-anchor: middle; fill: #243746" x="400.824" y="189.298937" transform="rotate(-0 400.824 189.298937)">+</text>
   </g>
   <g id="text_5">
    <text style="font-size: 11px; font-family: 'DejaVu Sans'; text-anchor: middle; fill: #243746" x="184.608" y="276.347313" transform="rotate(-0 184.608 276.347313)">D</text>
   </g>
   <g id="text_6">
    <!-- $x[n-1]$ -->
    <g style="fill: #243746" transform="translate(213.219 301.295313)">
     <text>
      <tspan x="0" y="-0.640625" style="font-style: oblique; font-size: 11px; font-family: 'DejaVu Sans'; fill: #243746">x</tspan>
      <tspan x="10.80127" y="-0.640625" style="font-style: oblique; font-size: 11px; font-family: 'DejaVu Sans'; fill: #243746">n</tspan>
      <tspan x="6.509766" y="-0.640625" style="font-size: 11px; font-family: 'DejaVu Sans'; fill: #243746">[</tspan>
      <tspan x="19.916016" y="-0.640625" style="font-size: 11px; font-family: 'DejaVu Sans'; fill: #243746">−</tspan>
      <tspan x="31.275879" y="-0.640625" style="font-size: 11px; font-family: 'DejaVu Sans'; fill: #243746">1</tspan>
      <tspan x="38.274414" y="-0.640625" style="font-size: 11px; font-family: 'DejaVu Sans'; fill: #243746">]</tspan>
     </text>
    </g>
   </g>
   <g id="text_7">
    <text style="font-size: 11px; font-family: 'DejaVu Sans'; text-anchor: middle; fill: #243746" x="284.4" y="276.347313" transform="rotate(-0 284.4 276.347313)">0.5</text>
   </g>
   <g id="text_8">
    <!-- $y[n]$ -->
    <g style="fill: #243746" transform="translate(514.509 165.457)">
     <text>
      <tspan x="0" y="-0.640625" style="font-style: oblique; font-size: 11px; font-family: 'DejaVu Sans'; fill: #243746">y</tspan>
      <tspan x="10.80127" y="-0.640625" style="font-style: oblique; font-size: 11px; font-family: 'DejaVu Sans'; fill: #243746">n</tspan>
      <tspan x="6.509766" y="-0.640625" style="font-size: 11px; font-family: 'DejaVu Sans'; fill: #243746">[</tspan>
      <tspan x="17.772949" y="-0.640625" style="font-size: 11px; font-family: 'DejaVu Sans'; fill: #243746">]</tspan>
     </text>
    </g>
   </g>
   <g id="text_9">
    <text style="font-size: 11px; font-family: 'DejaVu Sans'; text-anchor: middle; fill: #243746" x="362.016" y="87.851313" transform="rotate(-0 362.016 87.851313)">D</text>
   </g>
   <g id="text_10">
    <!-- $y[n-1]$ -->
    <g style="fill: #243746" transform="translate(288.063 65.665)">
     <text>
      <tspan x="0" y="-0.640625" style="font-style: oblique; font-size: 11px; font-family: 'DejaVu Sans'; fill: #243746">y</tspan>
      <tspan x="10.80127" y="-0.640625" style="font-style: oblique; font-size: 11px; font-family: 'DejaVu Sans'; fill: #243746">n</tspan>
      <tspan x="6.509766" y="-0.640625" style="font-size: 11px; font-family: 'DejaVu Sans'; fill: #243746">[</tspan>
      <tspan x="19.916016" y="-0.640625" style="font-size: 11px; font-family: 'DejaVu Sans'; fill: #243746">−</tspan>
      <tspan x="31.275879" y="-0.640625" style="font-size: 11px; font-family: 'DejaVu Sans'; fill: #243746">1</tspan>
      <tspan x="38.274414" y="-0.640625" style="font-size: 11px; font-family: 'DejaVu Sans'; fill: #243746">]</tspan>
     </text>
    </g>
   </g>
   <g id="text_11">
    <text style="font-size: 11px; font-family: 'DejaVu Sans'; text-anchor: middle; fill: #243746" x="256.68" y="87.851313" transform="rotate(-0 256.68 87.851313)">0.25</text>
   </g>
   <g id="text_12">
    <!-- $y[n]=0.25y[n-1]+0.5x[n]+0.5x[n-1]$ -->
    <g style="fill: #243746" transform="translate(149.265 335.099)">
     <text>
      <tspan x="0" y="-0.125" style="font-style: oblique; font-size: 13px; font-family: 'DejaVu Sans'; fill: #243746">y</tspan>
      <tspan x="12.765137" y="-0.125" style="font-style: oblique; font-size: 13px; font-family: 'DejaVu Sans'; fill: #243746">n</tspan>
      <tspan x="70.229492" y="-0.125" style="font-style: oblique; font-size: 13px; font-family: 'DejaVu Sans'; fill: #243746">y</tspan>
      <tspan x="82.994629" y="-0.125" style="font-style: oblique; font-size: 13px; font-family: 'DejaVu Sans'; fill: #243746">n</tspan>
      <tspan x="157.166992" y="-0.125" style="font-style: oblique; font-size: 13px; font-family: 'DejaVu Sans'; fill: #243746">x</tspan>
      <tspan x="169.932129" y="-0.125" style="font-style: oblique; font-size: 13px; font-family: 'DejaVu Sans'; fill: #243746">n</tspan>
      <tspan x="219.875488" y="-0.125" style="font-style: oblique; font-size: 13px; font-family: 'DejaVu Sans'; fill: #243746">x</tspan>
      <tspan x="232.640625" y="-0.125" style="font-style: oblique; font-size: 13px; font-family: 'DejaVu Sans'; fill: #243746">n</tspan>
      <tspan x="7.693359" y="-0.125" style="font-size: 13px; font-family: 'DejaVu Sans'; fill: #243746">[</tspan>
      <tspan x="21.004395" y="-0.125" style="font-size: 13px; font-family: 'DejaVu Sans'; fill: #243746">]</tspan>
      <tspan x="28.608887" y="-0.125" style="font-size: 13px; font-family: 'DejaVu Sans'; fill: #243746">=</tspan>
      <tspan x="42.03418" y="-0.125" style="font-size: 13px; font-family: 'DejaVu Sans'; fill: #243746">0</tspan>
      <tspan x="50.305176" y="-0.125" style="font-size: 13px; font-family: 'DejaVu Sans'; fill: #243746">.</tspan>
      <tspan x="53.6875" y="-0.125" style="font-size: 13px; font-family: 'DejaVu Sans'; fill: #243746">2</tspan>
      <tspan x="61.958496" y="-0.125" style="font-size: 13px; font-family: 'DejaVu Sans'; fill: #243746">5</tspan>
      <tspan x="77.922852" y="-0.125" style="font-size: 13px; font-family: 'DejaVu Sans'; fill: #243746">[</tspan>
      <tspan x="93.766602" y="-0.125" style="font-size: 13px; font-family: 'DejaVu Sans'; fill: #243746">−</tspan>
      <tspan x="107.191895" y="-0.125" style="font-size: 13px; font-family: 'DejaVu Sans'; fill: #243746">1</tspan>
      <tspan x="115.462891" y="-0.125" style="font-size: 13px; font-family: 'DejaVu Sans'; fill: #243746">]</tspan>
      <tspan x="123.067383" y="-0.125" style="font-size: 13px; font-family: 'DejaVu Sans'; fill: #243746">+</tspan>
      <tspan x="136.492676" y="-0.125" style="font-size: 13px; font-family: 'DejaVu Sans'; fill: #243746">0</tspan>
      <tspan x="144.763672" y="-0.125" style="font-size: 13px; font-family: 'DejaVu Sans'; fill: #243746">.</tspan>
      <tspan x="148.895996" y="-0.125" style="font-size: 13px; font-family: 'DejaVu Sans'; fill: #243746">5</tspan>
      <tspan x="164.860352" y="-0.125" style="font-size: 13px; font-family: 'DejaVu Sans'; fill: #243746">[</tspan>
      <tspan x="178.171387" y="-0.125" style="font-size: 13px; font-family: 'DejaVu Sans'; fill: #243746">]</tspan>
      <tspan x="185.775879" y="-0.125" style="font-size: 13px; font-family: 'DejaVu Sans'; fill: #243746">+</tspan>
      <tspan x="199.201172" y="-0.125" style="font-size: 13px; font-family: 'DejaVu Sans'; fill: #243746">0</tspan>
      <tspan x="207.472168" y="-0.125" style="font-size: 13px; font-family: 'DejaVu Sans'; fill: #243746">.</tspan>
      <tspan x="211.604492" y="-0.125" style="font-size: 13px; font-family: 'DejaVu Sans'; fill: #243746">5</tspan>
      <tspan x="227.568848" y="-0.125" style="font-size: 13px; font-family: 'DejaVu Sans'; fill: #243746">[</tspan>
      <tspan x="243.412598" y="-0.125" style="font-size: 13px; font-family: 'DejaVu Sans'; fill: #243746">−</tspan>
      <tspan x="256.837891" y="-0.125" style="font-size: 13px; font-family: 'DejaVu Sans'; fill: #243746">1</tspan>
      <tspan x="265.108887" y="-0.125" style="font-size: 13px; font-family: 'DejaVu Sans'; fill: #243746">]</tspan>
     </text>
    </g>
   </g>
  </g>
 </g>
 <defs>
  <clipPath id="p87d0e36240">
   <rect x="7.2" y="7.2" width="554.4" height="343.728"/>
  </clipPath>
 </defs>
</svg>
