<?xml version="1.0" encoding="utf-8" standalone="no"?>
<!DOCTYPE svg PUBLIC "-//W3C//DTD SVG 1.1//EN"
  "http://www.w3.org/Graphics/SVG/1.1/DTD/svg11.dtd">
<svg xmlns:xlink="http://www.w3.org/1999/xlink" width="638.715781pt" height="314.281813pt" viewBox="0 0 638.715781 314.281813" xmlns="http://www.w3.org/2000/svg" version="1.1">
 <metadata>
  <rdf:RDF xmlns:dc="http://purl.org/dc/elements/1.1/" xmlns:cc="http://creativecommons.org/ns#" xmlns:rdf="http://www.w3.org/1999/02/22-rdf-syntax-ns#">
   <cc:Work>
    <dc:type rdf:resource="http://purl.org/dc/dcmitype/StillImage"/>
    <dc:date>2026-09-22T19:56:26.366766</dc:date>
    <dc:format>image/svg+xml</dc:format>
    <dc:creator>
     <cc:Agent>
      <dc:title>Matplotlib v3.10.8, https://matplotlib.org/</dc:title>
     </cc:Agent>
    </dc:creator>
   </cc:Work>
  </rdf:RDF>
 </metadata>
 <defs>
  <style type="text/css">*{stroke-linejoin: round; stroke-linecap: butt}</style>
 </defs>
 <g id="figure_1">
  <g id="patch_1">
   <path d="M 0 314.281813 
L 638.715781 314.281813 
L 638.715781 0 
L 0 0 
z
" style="fill: #ffffff"/>
  </g>
  <g id="axes_1">
   <g id="patch_2">
    <path d="M 62.555781 274.789938 
L 631.515781 274.789938 
L 631.515781 23.229937 
L 62.555781 23.229937 
z
" style="fill: #ffffff"/>
   </g>
   <g id="matplotlib.axis_1">
    <g id="xtick_1">
     <g id="line2d_1">
      <path d="M 88.417599 274.789938 
L 88.417599 23.229937 
" clip-path="url(#p636da2a999)" style="fill: none; stroke: #b0b0b0; stroke-opacity: 0.3; stroke-width: 0.8; stroke-linecap: square"/>
     </g>
     <g id="line2d_2">
      <defs>
       <path id="m6eb2e612a4" d="M 0 0 
L 0 3.5 
" style="stroke: #000000; stroke-width: 0.8"/>
      </defs>
      <g>
       <use xlink:href="#m6eb2e612a4" x="88.417599" y="274.789938" style="stroke: #000000; stroke-width: 0.8"/>
      </g>
     </g>
     <g id="text_1">
      <text style="font-size: 11px; font-family: 'DejaVu Sans'; text-anchor: middle" x="88.417599" y="290.148219" transform="rotate(-0 88.417599 290.148219)">0.00</text>
     </g>
    </g>
    <g id="xtick_2">
     <g id="line2d_3">
      <path d="M 174.62366 274.789938 
L 174.62366 23.229937 
" clip-path="url(#p636da2a999)" style="fill: none; stroke: #b0b0b0; stroke-opacity: 0.3; stroke-width: 0.8; stroke-linecap: square"/>
     </g>
     <g id="line2d_4">
      <g>
       <use xlink:href="#m6eb2e612a4" x="174.62366" y="274.789938" style="stroke: #000000; stroke-width: 0.8"/>
      </g>
     </g>
     <g id="text_2">
      <text style="font-size: 11px; font-family: 'DejaVu Sans'; text-anchor: middle" x="174.62366" y="290.148219" transform="rotate(-0 174.62366 290.148219)">0.05</text>
     </g>
    </g>
    <g id="xtick_3">
     <g id="line2d_5">
      <path d="M 260.829721 274.789938 
L 260.829721 23.229937 
" clip-path="url(#p636da2a999)" style="fill: none; stroke: #b0b0b0; stroke-opacity: 0.3; stroke-width: 0.8; stroke-linecap: square"/>
     </g>
     <g id="line2d_6">
      <g>
       <use xlink:href="#m6eb2e612a4" x="260.829721" y="274.789938" style="stroke: #000000; stroke-width: 0.8"/>
      </g>
     </g>
     <g id="text_3">
      <text style="font-size: 11px; font-family: 'DejaVu Sans'; text-anchor: middle" x="260.829721" y="290.148219" transform="rotate(-0 260.829721 290.148219)">0.10</text>
     </g>
    </g>
    <g id="xtick_4">
     <g id="line2d_7">
      <path d="M 347.035781 274.789938 
L 347.035781 23.229937 
" clip-path="url(#p636da2a999)" style="fill: none; stroke: #b0b0b0; stroke-opacity: 0.3; stroke-width: 0.8; stroke-linecap: square"/>
     </g>
     <g id="line2d_8">
      <g>
       <use xlink:href="#m6eb2e612a4" x="347.035781" y="274.789938" style="stroke: #000000; stroke-width: 0.8"/>
      </g>
     </g>
     <g id="text_4">
      <text style="font-size: 11px; font-family: 'DejaVu Sans'; text-anchor: middle" x="347.035781" y="290.148219" transform="rotate(-0 347.035781 290.148219)">0.15</text>
     </g>
    </g>
    <g id="xtick_5">
     <g id="line2d_9">
      <path d="M 433.241842 274.789938 
L 433.241842 23.229937 
" clip-path="url(#p636da2a999)" style="fill: none; stroke: #b0b0b0; stroke-opacity: 0.3; stroke-width: 0.8; stroke-linecap: square"/>
     </g>
     <g id="line2d_10">
      <g>
       <use xlink:href="#m6eb2e612a4" x="433.241842" y="274.789938" style="stroke: #000000; stroke-width: 0.8"/>
      </g>
     </g>
     <g id="text_5">
      <text style="font-size: 11px; font-family: 'DejaVu Sans'; text-anchor: middle" x="433.241842" y="290.148219" transform="rotate(-0 433.241842 290.148219)">0.20</text>
     </g>
    </g>
    <g id="xtick_6">
     <g id="line2d_11">
      <path d="M 519.447902 274.789938 
L 519.447902 23.229937 
" clip-path="url(#p636da2a999)" style="fill: none; stroke: #b0b0b0; stroke-opacity: 0.3; stroke-width: 0.8; stroke-linecap: square"/>
     </g>
     <g id="line2d_12">
      <g>
       <use xlink:href="#m6eb2e612a4" x="519.447902" y="274.789938" style="stroke: #000000; stroke-width: 0.8"/>
      </g>
     </g>
     <g id="text_6">
      <text style="font-size: 11px; font-family: 'DejaVu Sans'; text-anchor: middle" x="519.447902" y="290.148219" transform="rotate(-0 519.447902 290.148219)">0.25</text>
     </g>
    </g>
    <g id="xtick_7">
     <g id="line2d_13">
      <path d="M 605.653963 274.789938 
L 605.653963 23.229937 
" clip-path="url(#p636da2a999)" style="fill: none; stroke: #b0b0b0; stroke-opacity: 0.3; stroke-width: 0.8; stroke-linecap: square"/>
     </g>
     <g id="line2d_14">
      <g>
       <use xlink:href="#m6eb2e612a4" x="605.653963" y="274.789938" style="stroke: #000000; stroke-width: 0.8"/>
      </g>
     </g>
     <g id="text_7">
      <text style="font-size: 11px; font-family: 'DejaVu Sans'; text-anchor: middle" x="605.653963" y="290.148219" transform="rotate(-0 605.653963 290.148219)">0.30</text>
     </g>
    </g>
    <g id="text_8">
     <text style="font-size: 11px; font-family: 'DejaVu Sans'; text-anchor: middle" x="347.035781" y="304.794156" transform="rotate(-0 347.035781 304.794156)">Waktu t (s)</text>
    </g>
   </g>
   <g id="matplotlib.axis_2">
    <g id="ytick_1">
     <g id="line2d_15">
      <path d="M 62.555781 263.355392 
L 631.515781 263.355392 
" clip-path="url(#p636da2a999)" style="fill: none; stroke: #b0b0b0; stroke-opacity: 0.3; stroke-width: 0.8; stroke-linecap: square"/>
     </g>
     <g id="line2d_16">
      <defs>
       <path id="m4c96b7623a" d="M 0 0 
L -3.5 0 
" style="stroke: #000000; stroke-width: 0.8"/>
      </defs>
      <g>
       <use xlink:href="#m4c96b7623a" x="62.555781" y="263.355392" style="stroke: #000000; stroke-width: 0.8"/>
      </g>
     </g>
     <g id="text_9">
      <text style="font-size: 11px; font-family: 'DejaVu Sans'; text-anchor: end" x="55.555781" y="267.534533" transform="rotate(-0 55.555781 267.534533)">−1.00</text>
     </g>
    </g>
    <g id="ytick_2">
     <g id="line2d_17">
      <path d="M 62.555781 234.769028 
L 631.515781 234.769028 
" clip-path="url(#p636da2a999)" style="fill: none; stroke: #b0b0b0; stroke-opacity: 0.3; stroke-width: 0.8; stroke-linecap: square"/>
     </g>
     <g id="line2d_18">
      <g>
       <use xlink:href="#m4c96b7623a" x="62.555781" y="234.769028" style="stroke: #000000; stroke-width: 0.8"/>
      </g>
     </g>
     <g id="text_10">
      <text style="font-size: 11px; font-family: 'DejaVu Sans'; text-anchor: end" x="55.555781" y="238.948169" transform="rotate(-0 55.555781 238.948169)">−0.75</text>
     </g>
    </g>
    <g id="ytick_3">
     <g id="line2d_19">
      <path d="M 62.555781 206.182665 
L 631.515781 206.182665 
" clip-path="url(#p636da2a999)" style="fill: none; stroke: #b0b0b0; stroke-opacity: 0.3; stroke-width: 0.8; stroke-linecap: square"/>
     </g>
     <g id="line2d_20">
      <g>
       <use xlink:href="#m4c96b7623a" x="62.555781" y="206.182665" style="stroke: #000000; stroke-width: 0.8"/>
      </g>
     </g>
     <g id="text_11">
      <text style="font-size: 11px; font-family: 'DejaVu Sans'; text-anchor: end" x="55.555781" y="210.361805" transform="rotate(-0 55.555781 210.361805)">−0.50</text>
     </g>
    </g>
    <g id="ytick_4">
     <g id="line2d_21">
      <path d="M 62.555781 177.596301 
L 631.515781 177.596301 
" clip-path="url(#p636da2a999)" style="fill: none; stroke: #b0b0b0; stroke-opacity: 0.3; stroke-width: 0.8; stroke-linecap: square"/>
     </g>
     <g id="line2d_22">
      <g>
       <use xlink:href="#m4c96b7623a" x="62.555781" y="177.596301" style="stroke: #000000; stroke-width: 0.8"/>
      </g>
     </g>
     <g id="text_12">
      <text style="font-size: 11px; font-family: 'DejaVu Sans'; text-anchor: end" x="55.555781" y="181.775442" transform="rotate(-0 55.555781 181.775442)">−0.25</text>
     </g>
    </g>
    <g id="ytick_5">
     <g id="line2d_23">
      <path d="M 62.555781 149.009937 
L 631.515781 149.009937 
" clip-path="url(#p636da2a999)" style="fill: none; stroke: #b0b0b0; stroke-opacity: 0.3; stroke-width: 0.8; stroke-linecap: square"/>
     </g>
     <g id="line2d_24">
      <g>
       <use xlink:href="#m4c96b7623a" x="62.555781" y="149.009937" style="stroke: #000000; stroke-width: 0.8"/>
      </g>
     </g>
     <g id="text_13">
      <text style="font-size: 11px; font-family: 'DejaVu Sans'; text-anchor: end" x="55.555781" y="153.189078" transform="rotate(-0 55.555781 153.189078)">0.00</text>
     </g>
    </g>
    <g id="ytick_6">
     <g id="line2d_25">
      <path d="M 62.555781 120.423574 
L 631.515781 120.423574 
" clip-path="url(#p636da2a999)" style="fill: none; stroke: #b0b0b0; stroke-opacity: 0.3; stroke-width: 0.8; stroke-linecap: square"/>
     </g>
     <g id="line2d_26">
      <g>
       <use xlink:href="#m4c96b7623a" x="62.555781" y="120.423574" style="stroke: #000000; stroke-width: 0.8"/>
      </g>
     </g>
     <g id="text_14">
      <text style="font-size: 11px; font-family: 'DejaVu Sans'; text-anchor: end" x="55.555781" y="124.602714" transform="rotate(-0 55.555781 124.602714)">0.25</text>
     </g>
    </g>
    <g id="ytick_7">
     <g id="line2d_27">
      <path d="M 62.555781 91.83721 
L 631.515781 91.83721 
" clip-path="url(#p636da2a999)" style="fill: none; stroke: #b0b0b0; stroke-opacity: 0.3; stroke-width: 0.8; stroke-linecap: square"/>
     </g>
     <g id="line2d_28">
      <g>
       <use xlink:href="#m4c96b7623a" x="62.555781" y="91.83721" style="stroke: #000000; stroke-width: 0.8"/>
      </g>
     </g>
     <g id="text_15">
      <text style="font-size: 11px; font-family: 'DejaVu Sans'; text-anchor: end" x="55.555781" y="96.016351" transform="rotate(-0 55.555781 96.016351)">0.50</text>
     </g>
    </g>
    <g id="ytick_8">
     <g id="line2d_29">
      <path d="M 62.555781 63.250847 
L 631.515781 63.250847 
" clip-path="url(#p636da2a999)" style="fill: none; stroke: #b0b0b0; stroke-opacity: 0.3; stroke-width: 0.8; stroke-linecap: square"/>
     </g>
     <g id="line2d_30">
      <g>
       <use xlink:href="#m4c96b7623a" x="62.555781" y="63.250847" style="stroke: #000000; stroke-width: 0.8"/>
      </g>
     </g>
     <g id="text_16">
      <text style="font-size: 11px; font-family: 'DejaVu Sans'; text-anchor: end" x="55.555781" y="67.429987" transform="rotate(-0 55.555781 67.429987)">0.75</text>
     </g>
    </g>
    <g id="ytick_9">
     <g id="line2d_31">
      <path d="M 62.555781 34.664483 
L 631.515781 34.664483 
" clip-path="url(#p636da2a999)" style="fill: none; stroke: #b0b0b0; stroke-opacity: 0.3; stroke-width: 0.8; stroke-linecap: square"/>
     </g>
     <g id="line2d_32">
      <g>
       <use xlink:href="#m4c96b7623a" x="62.555781" y="34.664483" style="stroke: #000000; stroke-width: 0.8"/>
      </g>
     </g>
     <g id="text_17">
      <text style="font-size: 11px; font-family: 'DejaVu Sans'; text-anchor: end" x="55.555781" y="38.843624" transform="rotate(-0 55.555781 38.843624)">1.00</text>
     </g>
    </g>
    <g id="text_18">
     <text style="font-size: 11px; font-family: 'DejaVu Sans'; text-anchor: middle" x="15.558281" y="149.009937" transform="rotate(-90 15.558281 149.009937)">Amplitudo</text>
    </g>
   </g>
   <g id="line2d_33">
    <path d="M 88.417599 149.009937 
L 101.348509 122.316521 
L 108.244993 108.591696 
L 113.934593 97.739355 
L 119.106957 88.348395 
L 123.762084 80.354614 
L 128.072387 73.391932 
L 132.037866 67.397058 
L 135.830933 62.060972 
L 139.451587 57.354396 
L 142.89983 53.242413 
L 146.17566 49.685872 
L 149.279078 46.642667 
L 152.210084 44.068868 
L 155.14109 41.794322 
L 157.899684 39.932761 
L 160.658278 38.346738 
L 163.24446 37.113659 
L 165.830642 36.129018 
L 168.244412 35.436102 
L 170.658181 34.962853 
L 173.071951 34.710186 
L 175.485721 34.678589 
L 177.89949 34.868125 
L 180.31326 35.278425 
L 182.72703 35.908697 
L 185.140799 36.757722 
L 187.726981 37.908265 
L 190.313163 39.305482 
L 192.899345 40.946271 
L 195.657939 42.9608 
L 198.416533 45.243218 
L 201.347539 47.955355 
L 204.450957 51.140946 
L 207.726787 54.842728 
L 211.002618 58.879922 
L 214.45086 63.47613 
L 218.071515 68.665107 
L 222.036993 74.748505 
L 226.174884 81.509077 
L 230.657599 89.264602 
L 235.485139 98.060699 
L 241.002327 108.591696 
L 247.381575 121.269818 
L 255.657357 138.24908 
L 276.174399 180.566182 
L 282.553648 193.099714 
L 288.070836 203.465611 
L 293.070787 212.387447 
L 297.553502 219.941483 
L 301.691393 226.495727 
L 305.656872 232.364187 
L 309.277527 237.343169 
L 312.725769 241.728045 
L 316.001599 245.554998 
L 319.27743 249.03807 
L 322.380848 252.009356 
L 325.311854 254.513371 
L 328.070448 256.595377 
L 330.829042 258.405612 
L 333.415224 259.851809 
L 336.001405 261.051909 
L 338.587587 262.003248 
L 341.001357 262.664855 
L 343.415127 263.106638 
L 345.828896 263.327744 
L 348.242666 263.327744 
L 350.656436 263.106638 
L 353.070205 262.664855 
L 355.483975 262.003248 
L 357.897745 261.123097 
L 360.483927 259.939504 
L 363.070109 258.50962 
L 365.828702 256.716529 
L 368.587296 254.651363 
L 371.518302 252.164855 
L 374.449309 249.384187 
L 377.552727 246.128152 
L 380.828557 242.35462 
L 384.276799 238.023563 
L 387.897454 233.098197 
L 391.690521 227.546266 
L 395.655999 221.34146 
L 399.966302 214.170078 
L 404.62143 205.97514 
L 409.621381 196.718602 
L 415.310981 185.70838 
L 422.035054 172.197743 
L 431.690133 152.242548 
L 446.345163 121.967352 
L 453.241648 108.255859 
L 458.931248 97.418517 
L 463.931199 88.348395 
L 468.586327 80.354614 
L 472.89663 73.391932 
L 476.862109 67.397058 
L 480.655175 62.060972 
L 484.27583 57.354396 
L 487.724072 53.242413 
L 490.999902 49.685872 
L 494.103321 46.642667 
L 497.034327 44.068868 
L 499.965333 41.794322 
L 502.723927 39.932761 
L 505.482521 38.346738 
L 508.068702 37.113659 
L 510.654884 36.129018 
L 513.068654 35.436102 
L 515.482424 34.962853 
L 517.896193 34.710186 
L 520.309963 34.678589 
L 522.723733 34.868125 
L 525.137502 35.278425 
L 527.551272 35.908697 
L 529.965042 36.757722 
L 532.551224 37.908265 
L 535.137405 39.305482 
L 537.723587 40.946271 
L 540.482181 42.9608 
L 543.240775 45.243218 
L 546.171781 47.955355 
L 549.275199 51.140946 
L 552.55103 54.842728 
L 555.82686 58.879922 
L 559.275102 63.47613 
L 562.895757 68.665107 
L 566.861236 74.748505 
L 570.999127 81.509077 
L 575.481842 89.264602 
L 580.309381 98.060699 
L 585.826569 108.591696 
L 592.205818 121.269818 
L 600.481599 138.24908 
L 605.653963 149.009937 
L 605.653963 149.009937 
" clip-path="url(#p636da2a999)" style="fill: none; stroke: #1765ad; stroke-width: 1.5; stroke-linecap: square"/>
   </g>
   <g id="line2d_34">
    <path d="M 88.417599 149.009937 
L 131.52063 149.009937 
L 131.52063 68.155491 
L 174.62366 68.155491 
L 174.62366 34.664483 
L 217.72669 34.664483 
L 217.72669 68.155491 
L 260.829721 68.155491 
L 260.829721 149.009937 
L 303.932751 149.009937 
L 303.932751 229.864384 
L 347.035781 229.864384 
L 347.035781 263.355392 
L 390.138812 263.355392 
L 390.138812 229.864384 
L 433.241842 229.864384 
L 433.241842 149.009938 
L 476.344872 149.009938 
L 476.344872 68.155491 
L 519.447902 68.155491 
L 519.447902 34.664483 
L 562.550933 34.664483 
L 562.550933 68.155491 
L 605.653963 68.155491 
L 605.653963 149.009937 
" clip-path="url(#p636da2a999)" style="fill: none; stroke: #e67e22; stroke-width: 2; stroke-linecap: square"/>
   </g>
   <g id="line2d_35">
    <defs>
     <path id="m65538e9546" d="M 0 2.5 
C 0.663008 2.5 1.29895 2.236584 1.767767 1.767767 
C 2.236584 1.29895 2.5 0.663008 2.5 0 
C 2.5 -0.663008 2.236584 -1.29895 1.767767 -1.767767 
C 1.29895 -2.236584 0.663008 -2.5 0 -2.5 
C -0.663008 -2.5 -1.29895 -2.236584 -1.767767 -1.767767 
C -2.236584 -1.29895 -2.5 -0.663008 -2.5 0 
C -2.5 0.663008 -2.236584 1.29895 -1.767767 1.767767 
C -1.29895 2.236584 -0.663008 2.5 0 2.5 
z
" style="stroke: #000000"/>
    </defs>
    <g clip-path="url(#p636da2a999)">
     <use xlink:href="#m65538e9546" x="88.417599" y="149.009937" style="stroke: #000000"/>
     <use xlink:href="#m65538e9546" x="131.52063" y="68.155491" style="stroke: #000000"/>
     <use xlink:href="#m65538e9546" x="174.62366" y="34.664483" style="stroke: #000000"/>
     <use xlink:href="#m65538e9546" x="217.72669" y="68.155491" style="stroke: #000000"/>
     <use xlink:href="#m65538e9546" x="260.829721" y="149.009937" style="stroke: #000000"/>
     <use xlink:href="#m65538e9546" x="303.932751" y="229.864384" style="stroke: #000000"/>
     <use xlink:href="#m65538e9546" x="347.035781" y="263.355392" style="stroke: #000000"/>
     <use xlink:href="#m65538e9546" x="390.138812" y="229.864384" style="stroke: #000000"/>
     <use xlink:href="#m65538e9546" x="433.241842" y="149.009938" style="stroke: #000000"/>
     <use xlink:href="#m65538e9546" x="476.344872" y="68.155491" style="stroke: #000000"/>
     <use xlink:href="#m65538e9546" x="519.447902" y="34.664483" style="stroke: #000000"/>
     <use xlink:href="#m65538e9546" x="562.550933" y="68.155491" style="stroke: #000000"/>
     <use xlink:href="#m65538e9546" x="605.653963" y="149.009937" style="stroke: #000000"/>
    </g>
   </g>
   <g id="patch_3">
    <path d="M 62.555781 274.789938 
L 62.555781 23.229937 
" style="fill: none; stroke: #000000; stroke-width: 0.8; stroke-linejoin: miter; stroke-linecap: square"/>
   </g>
   <g id="patch_4">
    <path d="M 62.555781 274.789938 
L 631.515781 274.789938 
" style="fill: none; stroke: #000000; stroke-width: 0.8; stroke-linejoin: miter; stroke-linecap: square"/>
   </g>
   <g id="text_19">
    <text style="font-size: 13.2px; font-family: 'DejaVu Sans'; text-anchor: middle" x="347.035781" y="17.229937" transform="rotate(-0 347.035781 17.229937)">Sample-and-hold: f0 = 5 Hz, fs = 40 Hz</text>
   </g>
   <g id="legend_1">
    <g id="patch_5">
     <path d="M 68.855781 270.289938 
L 187.387187 270.289938 
Q 189.187187 270.289938 189.187187 268.489937 
L 189.187187 229.759 
Q 189.187187 227.959 187.387187 227.959 
L 68.855781 227.959 
Q 67.055781 227.959 67.055781 229.759 
L 67.055781 268.489937 
Q 67.055781 270.289938 68.855781 270.289938 
z
" style="fill: #ffffff; opacity: 0.8; stroke: #cccccc; stroke-linejoin: miter"/>
    </g>
    <g id="line2d_36">
     <path d="M 70.655781 235.247594 
L 79.655781 235.247594 
L 88.655781 235.247594 
" style="fill: none; stroke: #1765ad; stroke-width: 1.5; stroke-linecap: square"/>
    </g>
    <g id="text_20">
     <text style="font-size: 9px; font-family: 'DejaVu Sans'; text-anchor: start" x="95.855781" y="238.397594" transform="rotate(-0 95.855781 238.397594)">Sinyal analog</text>
    </g>
    <g id="line2d_37">
     <path d="M 70.655781 248.457906 
L 79.655781 248.457906 
L 79.655781 248.457906 
L 88.655781 248.457906 
L 88.655781 248.457906 
" style="fill: none; stroke: #e67e22; stroke-width: 2; stroke-linecap: square"/>
    </g>
    <g id="text_21">
     <text style="font-size: 9px; font-family: 'DejaVu Sans'; text-anchor: start" x="95.855781" y="251.607906" transform="rotate(-0 95.855781 251.607906)">Penahanan orde nol</text>
    </g>
    <g id="line2d_38">
     <g>
      <use xlink:href="#m65538e9546" x="79.655781" y="261.668219" style="stroke: #000000"/>
     </g>
    </g>
    <g id="text_22">
     <text style="font-size: 9px; font-family: 'DejaVu Sans'; text-anchor: start" x="95.855781" y="264.818219" transform="rotate(-0 95.855781 264.818219)">Nilai sampel</text>
    </g>
   </g>
  </g>
 </g>
 <defs>
  <clipPath id="p636da2a999">
   <rect x="62.555781" y="23.229937" width="568.96" height="251.56"/>
  </clipPath>
 </defs>
</svg>
